<svg id="Layer_1" data-name="Layer 1" xmlns="http://www.w3.org/2000/svg" viewBox="0 0 468.59 138.28">
  <defs>
    <style>.cls-1{fill:#2cbad8;}.cls-2{fill:#fff;}</style>
  </defs>
  <title>Seevoov_Logo_4website</title>
  <path class="cls-1" d="M444.52,471.87l23.67,14.22V444.14a48.3,48.3,0,0,0-23.67.7v27Z" transform="translate(-405 -443)"/>
  <path class="cls-1" d="M464.09,537.18A6.88,6.88,0,1,0,471,530.3a6.89,6.89,0,0,0-6.88,6.89Z" transform="translate(-405 -443)"/>
  <path class="cls-1" d="M474.67,490l8.25,5,3.94-2.38a42.34,42.34,0,0,0,16.32-21.19,53.8,53.8,0,0,0-28.5-25.27V490Z"
        transform="translate(-405 -443)"/>
  <path class="cls-1" d="M438,529.58l-16.27,9.82A257.38,257.38,0,0,0,438,560.32V529.58Z" transform="translate(-405 -443)"/>
  <path class="cls-1"
        d="M468.19,550.24a13.35,13.35,0,0,1,0-26.12V511.39l-23.67,14.28v42c7.52,8.27,13.11,13.62,13.11,13.62s4.35-4.18,10.56-10.87V550.24Z"
        transform="translate(-405 -443)"/>
  <path class="cls-1" d="M421.81,458.23,438,468V447.1a52.25,52.25,0,0,0-16.23,11.13Z" transform="translate(-405 -443)"/>
  <path class="cls-1"
        d="M490.22,498.1l-15.55,9.38V524.4a13.28,13.28,0,0,1,0,25.56v13.27c15.37-17.5,35.58-44.18,35.58-63.57a60.27,60.27,0,0,0-3.49-20.15,49.69,49.69,0,0,1-16.55,18.58Z"
        transform="translate(-405 -443)"/>
  <path class="cls-1" d="M438,492.47V475.54l-20.62-12.39A59,59,0,0,0,405,499.67a36.37,36.37,0,0,0,1.2,8.72L438,492.47Z"
        transform="translate(-405 -443)"/>
  <path class="cls-1" d="M407.81,513.62A104.31,104.31,0,0,0,418.18,534L438,522V498.51l-30.23,15.11Z" transform="translate(-405 -443)"/>
  <polygon class="cls-2" points="39.77 56.33 39.77 37.88 55.74 47.11 71.72 56.33 55.74 65.55 39.77 74.78 39.77 56.33 39.77 56.33"/>
  <path class="cls-2"
        d="M540.06,532.09a1.52,1.52,0,0,1-.26-.81,1.58,1.58,0,0,1,.59-1.14l5.08-5a1.45,1.45,0,0,1,1-.43,2.68,2.68,0,0,1,1.61.82,31.74,31.74,0,0,0,6.14,4.71,13.71,13.71,0,0,0,7,1.79,11.7,11.7,0,0,0,5-1,8.1,8.1,0,0,0,3.32-2.72,6.26,6.26,0,0,0,1.16-3.62,4.74,4.74,0,0,0-1.65-3.68,11.55,11.55,0,0,0-3.74-2.24q-2.09-.77-5.2-1.6A51.08,51.08,0,0,1,549.67,513a17.8,17.8,0,0,1-6.22-5.47,13,13,0,0,1-2.11-7.4,13.57,13.57,0,0,1,2.59-8.17,16.72,16.72,0,0,1,7.2-5.53,27,27,0,0,1,10.65-2,21.2,21.2,0,0,1,9.37,2.26,29.16,29.16,0,0,1,8.15,5.85A2.19,2.19,0,0,1,580,494a2.3,2.3,0,0,1-.71,1.49l-4.17,4.25a1.55,1.55,0,0,1-1,.47,1.73,1.73,0,0,1-.85-.23,8.62,8.62,0,0,1-1-.71,35.68,35.68,0,0,0-5.27-3.72,11,11,0,0,0-5.52-1.48,13,13,0,0,0-6.2,1.36c-1.69.9-2.54,2.53-2.54,4.86a4.27,4.27,0,0,0,1.32,3.23,10.06,10.06,0,0,0,3.46,2.07q2.14.81,6.24,1.91a56.61,56.61,0,0,1,9.86,3.8A17.89,17.89,0,0,1,580,516.7a14,14,0,0,1,2.42,8.37,14.72,14.72,0,0,1-2.91,9,19.2,19.2,0,0,1-7.74,6.1,24.92,24.92,0,0,1-10.34,2.17,26.87,26.87,0,0,1-11.3-2.52,28.44,28.44,0,0,1-9.38-6.77,8.36,8.36,0,0,1-.69-.93Z"
        transform="translate(-405 -443)"/>
  <path class="cls-2"
        d="M620.94,528.64a1,1,0,0,1,.87.45l3.68,4.51a1.77,1.77,0,0,1,.45,1.09,1.51,1.51,0,0,1-.56,1.09,27.39,27.39,0,0,1-8,5.09,23.46,23.46,0,0,1-8.59,1.56,22.65,22.65,0,0,1-11.65-3.19,24.25,24.25,0,0,1-8.7-8.62,22.48,22.48,0,0,1-3.25-11.78,24,24,0,0,1,3-11.89,22.85,22.85,0,0,1,20.31-11.82,23.57,23.57,0,0,1,10.61,2.61,21.8,21.8,0,0,1,8.68,8,23.8,23.8,0,0,1,3.44,13.13,5.87,5.87,0,0,1-.41,2.56,1.71,1.71,0,0,1-1.11,1,9.91,9.91,0,0,1-2.16.17H595.23a14.06,14.06,0,0,0,2.71,5.67,13.48,13.48,0,0,0,4.79,3.8,14,14,0,0,0,6.11,1.35,16.56,16.56,0,0,0,4.36-.51,12.74,12.74,0,0,0,3-1.2,26.22,26.22,0,0,0,2.65-1.82L620,529a1.7,1.7,0,0,1,1-.34ZM603,505.23a14.26,14.26,0,0,0-4.49,3.57,15.9,15.9,0,0,0-2.87,5h25.74a15.91,15.91,0,0,0-5-7.19A12.46,12.46,0,0,0,603,505.23Z"
        transform="translate(-405 -443)"/>
  <path class="cls-2"
        d="M670.12,528.64a1,1,0,0,1,.86.45l3.68,4.51a1.76,1.76,0,0,1,.45,1.09,1.51,1.51,0,0,1-.56,1.09,27.39,27.39,0,0,1-8,5.09,23.46,23.46,0,0,1-8.59,1.56,22.65,22.65,0,0,1-11.65-3.19,24.24,24.24,0,0,1-8.7-8.62,22.48,22.48,0,0,1-3.25-11.78,24,24,0,0,1,3-11.89,22.85,22.85,0,0,1,20.31-11.82,23.57,23.57,0,0,1,10.61,2.61,21.79,21.79,0,0,1,8.68,8,23.8,23.8,0,0,1,3.44,13.13,5.87,5.87,0,0,1-.41,2.56,1.72,1.72,0,0,1-1.11,1,9.91,9.91,0,0,1-2.16.17H644.41a14.06,14.06,0,0,0,2.71,5.67,13.48,13.48,0,0,0,4.79,3.8,14,14,0,0,0,6.11,1.35,16.56,16.56,0,0,0,4.36-.51,12.73,12.73,0,0,0,3-1.2,26.22,26.22,0,0,0,2.65-1.82l1.09-.83a1.7,1.7,0,0,1,1-.34ZM652.2,505.23a14.26,14.26,0,0,0-4.49,3.57,15.9,15.9,0,0,0-2.87,5h25.74a15.9,15.9,0,0,0-5-7.19,12.46,12.46,0,0,0-13.35-1.41Z"
        transform="translate(-405 -443)"/>
  <path class="cls-2"
        d="M708.57,541.64h-6.34a2,2,0,0,1-1.92-1.42l-20.91-53.12a1.71,1.71,0,0,1-.16-.71.83.83,0,0,1,.32-.71,1.42,1.42,0,0,1,.86-.24H689a1.87,1.87,0,0,1,1.85,1.46l14.49,39.57L719.75,487a1.93,1.93,0,0,1,1.85-1.5h8.74a1.34,1.34,0,0,1,.86.26.88.88,0,0,1,.32.73,1.82,1.82,0,0,1-.16.75l-20.87,53a2,2,0,0,1-1.92,1.42Z"
        transform="translate(-405 -443)"/>
  <path class="cls-2"
        d="M731,506.87a23.67,23.67,0,0,1,8.61-8.6,23.05,23.05,0,0,1,11.86-3.17,23.43,23.43,0,0,1,11.95,3.17,23.91,23.91,0,0,1,8.71,8.6,23.35,23.35,0,0,1,0,23.73,24,24,0,0,1-8.71,8.64,23.25,23.25,0,0,1-11.91,3.19,22.94,22.94,0,0,1-11.85-3.19,23.86,23.86,0,0,1-8.63-8.64,23.69,23.69,0,0,1,0-23.73Zm8.83,19a13.17,13.17,0,0,0,4.75,5.15,12.79,12.79,0,0,0,6.91,1.9,13.05,13.05,0,0,0,7-1.92,13.31,13.31,0,0,0,4.83-5.17,14.88,14.88,0,0,0,1.73-7.08,14.5,14.5,0,0,0-1.75-7,13.44,13.44,0,0,0-4.83-5.11,13,13,0,0,0-7-1.9,13,13,0,0,0-11.66,7,14.79,14.79,0,0,0-1.71,7.08,15,15,0,0,0,1.71,7.12Z"
        transform="translate(-405 -443)"/>
  <path class="cls-2"
        d="M784.81,506.87a23.57,23.57,0,0,1,8.6-8.6,23.07,23.07,0,0,1,11.86-3.17,23.44,23.44,0,0,1,11.95,3.17,24,24,0,0,1,8.72,8.6,23.42,23.42,0,0,1,0,23.73,24.07,24.07,0,0,1-8.72,8.64,23.27,23.27,0,0,1-11.91,3.19,23,23,0,0,1-11.85-3.19,23.89,23.89,0,0,1-8.62-8.64,23.7,23.7,0,0,1,0-23.73Zm8.83,19a13.13,13.13,0,0,0,4.75,5.15,12.79,12.79,0,0,0,6.91,1.9,13.05,13.05,0,0,0,7-1.92,13.27,13.27,0,0,0,4.83-5.17,14.82,14.82,0,0,0,1.73-7.08,14.5,14.5,0,0,0-1.74-7,13.45,13.45,0,0,0-4.83-5.11,13.06,13.06,0,0,0-7-1.9,12.92,12.92,0,0,0-6.89,1.88,13,13,0,0,0-4.77,5.09,14.84,14.84,0,0,0-1.71,7.08,15.06,15.06,0,0,0,1.71,7.12Z"
        transform="translate(-405 -443)"/>
  <path class="cls-2"
        d="M853.75,541.6h-3.95a1.91,1.91,0,0,1-1.85-1.32l-17.35-42.34a2.73,2.73,0,0,1-.23-1,1.28,1.28,0,0,1,.43-1,1.75,1.75,0,0,1,1.15-.36h7.36a1.86,1.86,0,0,1,1.8,1.43l10.63,29.57,10.63-29.68a1.77,1.77,0,0,1,1.8-1.32h8.23c.78,0,1.17.32,1.17,1a3.71,3.71,0,0,1-.3,1.17l-17.7,42.61a1.9,1.9,0,0,1-1.84,1.32Z"
        transform="translate(-405 -443)"/>
</svg>
